<svg version="1.1" id="Layer_1" xmlns="http://www.w3.org/2000/svg" xmlns:xlink="http://www.w3.org/1999/xlink" x="0px" y="0px"
	 viewBox="0 0 500 500" xml:space="preserve">
	<title>Sinatra Logo</title>
	<g id="XMLID_1_">
		<defs>
			<radialGradient id="SVGID_1_" cx="-7.372583e-002" cy="-3.019338e-002" r="1.4256" gradientTransform="matrix(-174.8361 29.9613 -16.259 -94.9039 308.8024 255.3898)" gradientUnits="userSpaceOnUse">
				<stop  offset="0" style="stop-color:#F3EFE9"/>
				<stop  offset="0.476" style="stop-color:#F3EFE9"/>
				<stop  offset="0.5676" style="stop-color:#EEEAE3"/>
				<stop  offset="0.6878" style="stop-color:#E1DBD2"/>
				<stop  offset="0.8239" style="stop-color:#CDC5B7"/>
				<stop  offset="0.9626" style="stop-color:#B4AA98"/>
				<stop  offset="1" style="stop-color:#B4AA98"/>
			</radialGradient>
			<linearGradient id="SVGID_2_" gradientUnits="userSpaceOnUse" x1="-0.2836" y1="-9.846014e-002" x2="1.142" y2="-9.846014e-002" gradientTransform="matrix(143.4039 10.8457 -10.8457 143.4039 183.6604 211.4772)">
				<stop  offset="0" style="stop-color:#D7D0C6"/>
				<stop  offset="9.389630e-002" style="stop-color:#D7D0C6"/>
				<stop  offset="0.2485" style="stop-color:#CDC7BB"/>
				<stop  offset="0.4006" style="stop-color:#C7C2B5"/>
				<stop  offset="0.5248" style="stop-color:#CBC6BA"/>
				<stop  offset="0.6688" style="stop-color:#D7D1C7"/>
				<stop  offset="0.7801" style="stop-color:#E6DFD6"/>
				<stop  offset="0.8921" style="stop-color:#E7E3D9"/>
				<stop  offset="0.9337" style="stop-color:#E5DFD3"/>
				<stop  offset="0.9795" style="stop-color:#DFD5C6"/>
				<stop  offset="1" style="stop-color:#DFD5C6"/>
			</linearGradient>
			<radialGradient id="SVGID_3_" cx="-0.5277" cy="9.465609e-002" r="1.4256" gradientTransform="matrix(4.7401 53.5577 -144.3224 12.7751 240.7004 187.4617)" gradientUnits="userSpaceOnUse">
				<stop  offset="0" style="stop-color:#B2A797"/>
				<stop  offset="6.710740e-002" style="stop-color:#B2A797"/>
				<stop  offset="0.2897" style="stop-color:#C7BDAE"/>
				<stop  offset="0.4806" style="stop-color:#D6CEBF"/>
				<stop  offset="0.6881" style="stop-color:#E2DCD0"/>
				<stop  offset="0.9423" style="stop-color:#F7F5EE"/>
				<stop  offset="1" style="stop-color:#F7F5EE"/>
			</radialGradient>
			<linearGradient id="SVGID_4_" gradientUnits="userSpaceOnUse" x1="-0.3073" y1="-0.2878" x2="1.1183" y2="-0.2878" gradientTransform="matrix(107.7565 0 0 107.7565 199.4592 179.725)">
				<stop  offset="0" style="stop-color:#F7F5EE"/>
				<stop  offset="5.596680e-002" style="stop-color:#F7F5EE"/>
				<stop  offset="0.2258" style="stop-color:#E6E1D6"/>
				<stop  offset="0.4305" style="stop-color:#D8D1C3"/>
				<stop  offset="0.6393" style="stop-color:#D0C8B9"/>
				<stop  offset="0.8566" style="stop-color:#CEC5B5"/>
				<stop  offset="1" style="stop-color:#CEC5B5"/>
			</linearGradient>
			<linearGradient id="SVGID_5_" gradientUnits="userSpaceOnUse" x1="-0.2885" y1="1.761083e-002" x2="1.1371" y2="1.761083e-002" gradientTransform="matrix(153.928 0 0 153.928 172.5494 258.5994)">
				<stop  offset="0" style="stop-color:#262222"/>
				<stop  offset="1.840490e-002" style="stop-color:#262222"/>
				<stop  offset="9.587800e-002" style="stop-color:#2F2C2C"/>
				<stop  offset="0.2998" style="stop-color:#424143"/>
				<stop  offset="0.4017" style="stop-color:#4A4A4C"/>
				<stop  offset="0.514" style="stop-color:#4A4A4C"/>
				<stop  offset="0.7797" style="stop-color:#383536"/>
				<stop  offset="1" style="stop-color:#262222"/>
			</linearGradient>
		</defs>

		<path fill="url(#SVGID_1_)" d="M71.7,308.7c0,0-29.4-57,67.6-89c45.3-15,98.5-24.8,146-26.5c54.2-1.9,102.2,7.6,123.2,39.5
			c15.1,23.1,6,51.3-23.2,73.3c-17.5,13.1-56,26.2-81.7,33.6c-25.7,7.3-76,17.1-117.2,14.8C145.1,352.2,93.9,346.2,71.7,308.7z"/>
		<path id="XMLID_2_" fill="#CEC7BC" d="M71.7,308.7c0,0-29.4-57,67.6-89c45.3-15,98.5-24.8,146-26.5c54.2-1.9,102.2,7.6,123.2,39.5
			c15.1,23.1,6,51.3-23.2,73.3c-17.5,13.1-56,26.2-81.7,33.6c-25.7,7.3-76,17.1-117.2,14.8C145.1,352.2,93.9,346.2,71.7,308.7z
			M187.2,352.8c40.2,2.3,89.2-7.4,114.2-14.5s63-19.4,80.1-32.2c28.5-21.4,40.1-48,24.1-72.6c-20.2-31.4-69.4-41.1-122.2-39.2
			c-46.2,1.6-98.1,12.5-142.3,27.1c-94.5,31.2-65.9,86.8-65.9,86.8C97.1,344.6,147,350.5,187.2,352.8z"/>
		<path fill="url(#SVGID_2_)" d="M149.2,263.2c-8.4-6.1-20.2-36.2-15.7-42.8c4.6-6.6,11.4-20.2,15.3-33.6c3.8-13.3,9.3-41.5,20-51.5
			s26.7-10,47.8-7.7c21,2.3,82.4,13.4,97.4,18.7c14.8,5.3,34.2,15.3,33.1,38.5s1,34.8-1.7,47.8c-2.7,13-30.9,38.2-66.4,40.1
			C243.2,274.8,157.6,269.4,149.2,263.2z"/>
		<path fill="url(#SVGID_3_)" d="M249.7,234.6c0,0,36.6-4.8,58.7-25.5s2.6-35.5-3.4-39.2c-6-3.7-26.1-13.4-57.9-12c-31.8,1.4-63.2,1.7-61,25.2
			C188.3,206.5,214,234.6,249.7,234.6z"/>
		<path fill="url(#SVGID_4_)" d="M168.8,163.9c-4-2.6-4.6-16.5,10.3-26.1c14.8-9.4,53-3.7,77.8,2.3c24.9,6,65.1,14.4,63,16.7
			c-2.1,2.1-62-5.1-89.4-3.7C193.3,155,175,167.9,168.8,163.9z"/>
		<path fill="url(#SVGID_5_)" d="M346.4,228.7c-0.4,0-0.6,1.3-1.1,2c-4.7,7.7-18.7,20.8-50.5,20.8c-28.2,0-72.8,0-86.4,0
			c-54.5,0-70.3-14.7-74.3-25.2c-0.3-1-0.7-2.3-1.1-2.3c-0.4,0-0.7,2.3-0.7,2.3l-4.1,39.5c0,18.1,46.9,32.8,107.2,32.8
			c60.3,0,112.1-8.6,112.1-32.8c0,0,0.3-24.1,0.1-34.8C347.5,229.9,347.4,228.7,346.4,228.7z"/>
	</g>
</svg>
